<svg width="24" height="24" viewBox="0 0 24 24" fill="none" xmlns="http://www.w3.org/2000/svg">
<path d="M12 13.5C12.663 13.5 13.2989 13.2366 13.7678 12.7678C14.2366 12.2989 14.5 11.663 14.5 11C14.5 10.337 14.2366 9.70107 13.7678 9.23223C13.2989 8.76339 12.663 8.5 12 8.5C11.337 8.5 10.7011 8.76339 10.2322 9.23223C9.76339 9.70107 9.5 10.337 9.5 11C9.5 11.663 9.76339 12.2989 10.2322 12.7678C10.7011 13.2366 11.337 13.5 12 13.5Z" fill="white"/>
<path d="M19.071 3.42875H19.072C22.977 7.33375 22.977 13.6657 19.072 17.5707L13.669 22.9738C13.2264 23.4159 12.6265 23.6642 12.001 23.6642C11.3754 23.6642 10.7755 23.4159 10.333 22.9738L4.95797 17.5988L4.92997 17.5707C1.02497 13.6657 1.02497 7.33375 4.92997 3.42875C8.83497 -0.47625 15.166 -0.47625 19.071 3.42875ZM5.98997 4.48875C4.39616 6.08278 3.50079 8.24561 3.50079 10.4998C3.50079 12.7539 4.39616 14.9157 5.98997 16.5098L6.01297 16.5338L6.01497 16.5357L11.393 21.9137C11.5542 22.0744 11.7724 22.1645 12 22.1645C12.2275 22.1645 12.4458 22.0744 12.607 21.9137L18.01 16.5098C19.585 14.9118 20.4643 12.756 20.4563 10.5124C20.4482 8.26876 19.5534 6.11931 17.967 4.53275C16.3805 2.94619 14.2312 2.0512 11.9875 2.04296C9.74391 2.03472 7.58801 2.91389 5.98997 4.48875Z" fill="white"/>
</svg>
