<svg width="256" height="256" viewBox="0 0 256 256" fill="none" xmlns="http://www.w3.org/2000/svg">
<path d="M222.37 158.46L175.26 137.35L175.13 137.29C172.684 136.244 170.016 135.824 167.368 136.069C164.719 136.313 162.173 137.214 159.96 138.69C159.699 138.862 159.449 139.049 159.21 139.25L134.87 160C119.45 152.51 103.53 136.71 96.04 121.49L116.82 96.7799C117.02 96.5299 117.21 96.2799 117.39 96.0099C118.834 93.803 119.711 91.2731 119.941 88.6457C120.171 86.0182 119.748 83.3745 118.71 80.9499V80.8299L97.54 33.6399C96.1674 30.4726 93.8072 27.8341 90.8118 26.1183C87.8165 24.4025 84.3465 23.7015 80.92 24.1199C67.3697 25.903 54.9318 32.5576 45.9293 42.8409C36.9268 53.1242 31.9755 66.3328 32 79.9999C32 159.4 96.6 224 176 224C189.667 224.024 202.876 219.073 213.159 210.071C223.442 201.068 230.097 188.63 231.88 175.08C232.299 171.655 231.6 168.185 229.886 165.19C228.172 162.195 225.535 159.834 222.37 158.46ZM176 208C142.064 207.963 109.528 194.465 85.5312 170.469C61.5346 146.472 48.037 113.936 48 79.9999C47.9623 70.2348 51.4805 60.7899 57.8973 53.429C64.3142 46.0681 73.191 41.2946 82.87 39.9999C82.866 40.0398 82.866 40.08 82.87 40.1199L103.87 87.1199L83.2 111.86C82.9897 112.101 82.7991 112.358 82.63 112.63C81.1251 114.939 80.2423 117.598 80.0671 120.349C79.8919 123.099 80.4303 125.848 81.63 128.33C90.69 146.86 109.36 165.39 128.09 174.44C130.59 175.628 133.355 176.148 136.115 175.948C138.876 175.749 141.538 174.836 143.84 173.3C144.097 173.128 144.344 172.941 144.58 172.74L168.89 152L215.89 173.05H216C214.721 182.743 209.955 191.637 202.592 198.07C195.23 204.503 185.777 208.033 176 208Z" fill="white"/>
</svg>
