<svg width="60" height="60" viewBox="0 0 60 60" fill="none" xmlns="http://www.w3.org/2000/svg">
  <g filter="url(#filter0_d_4_15)">
    <path fill-rule="evenodd" clip-rule="evenodd" d="M30 47.4999C42.4263 47.4999 52.5 37.4262 52.5 25C52.5 12.5737 42.4263 2.5 30 2.5C17.5737 2.5 7.5 12.5737 7.5 25C7.5 37.4262 17.5737 47.4999 30 47.4999ZM30 49.9999C43.8075 49.9999 55 38.8074 55 25C55 11.1925 43.8075 0 30 0C16.1925 0 5 11.1925 5 25C5 38.8074 16.1925 49.9999 30 49.9999Z" fill="white" />
    <path d="M15 39.5375C15 38.2462 15.965 37.155 17.25 37.0125C26.8938 35.945 33.15 36.0412 42.7725 37.0362C43.253 37.0867 43.7084 37.276 44.0831 37.581C44.4578 37.886 44.7356 38.2936 44.8825 38.7539C45.0294 39.2141 45.039 39.7072 44.9103 40.1729C44.7815 40.6386 44.52 41.0567 44.1575 41.3762C32.8013 51.2749 26.3113 51.1387 15.8 41.3862C15.2875 40.9112 15 40.2362 15 39.5387V39.5375Z" fill="white" />
    <path fill-rule="evenodd" clip-rule="evenodd" d="M42.6438 38.2787C33.0975 37.2912 26.9313 37.1987 17.3863 38.255C17.0721 38.2916 16.7824 38.4428 16.5728 38.6797C16.3631 38.9165 16.2482 39.2224 16.25 39.5387C16.25 39.8962 16.3988 40.235 16.65 40.47C21.86 45.3024 25.8075 47.4862 29.6663 47.4999C33.5388 47.5137 37.6988 45.3474 43.3363 40.435C43.5154 40.2755 43.6443 40.0675 43.7074 39.8362C43.7705 39.6049 43.765 39.3603 43.6917 39.132C43.6183 38.9037 43.4802 38.7017 43.2942 38.5504C43.1082 38.3992 42.8822 38.3052 42.6438 38.28V38.2787ZM17.1125 35.77C26.8575 34.6912 33.205 34.7887 42.9025 35.7925C43.6254 35.8679 44.3106 36.1525 44.8742 36.6114C45.4378 37.0703 45.8554 37.6835 46.0759 38.3761C46.2964 39.0686 46.3101 39.8104 46.1155 40.5107C45.9208 41.2109 45.5262 41.8393 44.98 42.3187C39.2613 47.3037 34.4988 50.0187 29.6588 49.9999C24.805 49.9824 20.2525 47.2212 14.9513 42.3025C14.5717 41.9489 14.2691 41.5209 14.0624 41.0452C13.8557 40.5694 13.7494 40.0562 13.75 39.5375C13.7482 38.6055 14.0903 37.7056 14.7107 37.0102C15.3312 36.3148 16.1864 35.8727 17.1125 35.7687V35.77Z" fill="white" />
    <path d="M40 20C40 22.6521 38.9464 25.1957 37.0711 27.071C35.1957 28.9464 32.6522 30 30 30C27.3478 30 24.8043 28.9464 22.9289 27.071C21.0536 25.1957 20 22.6521 20 20C20 17.3478 21.0536 14.8043 22.9289 12.9289C24.8043 11.0536 27.3478 10 30 10C32.6522 10 35.1957 11.0536 37.0711 12.9289C38.9464 14.8043 40 17.3478 40 20Z" fill="white" />
    <path fill-rule="evenodd" clip-rule="evenodd" d="M30 27.5C31.9891 27.5 33.8968 26.7098 35.3033 25.3033C36.7098 23.8968 37.5 21.9891 37.5 20C37.5 18.0109 36.7098 16.1032 35.3033 14.6967C33.8968 13.2902 31.9891 12.5 30 12.5C28.0109 12.5 26.1032 13.2902 24.6967 14.6967C23.2902 16.1032 22.5 18.0109 22.5 20C22.5 21.9891 23.2902 23.8968 24.6967 25.3033C26.1032 26.7098 28.0109 27.5 30 27.5ZM30 30C32.6522 30 35.1957 28.9464 37.0711 27.071C38.9464 25.1957 40 22.6521 40 20C40 17.3478 38.9464 14.8043 37.0711 12.9289C35.1957 11.0536 32.6522 10 30 10C27.3478 10 24.8043 11.0536 22.9289 12.9289C21.0536 14.8043 20 17.3478 20 20C20 22.6521 21.0536 25.1957 22.9289 27.071C24.8043 28.9464 27.3478 30 30 30Z" fill="white" />
  </g>
  <defs>
    <filter id="filter0_d_4_15" x="0" y="0" width="60" height="60" filterUnits="userSpaceOnUse" color-interpolation-filters="sRGB">
      <feFlood flood-opacity="0" result="BackgroundImageFix" />
      <feColorMatrix in="SourceAlpha" type="matrix" values="0 0 0 0 0 0 0 0 0 0 0 0 0 0 0 0 0 0 127 0" result="hardAlpha" />
      <feOffset dy="5" />
      <feGaussianBlur stdDeviation="2.5" />
      <feComposite in2="hardAlpha" operator="out" />
      <feColorMatrix type="matrix" values="0 0 0 0 0 0 0 0 0 0 0 0 0 0 0 0 0 0 0.25 0" />
      <feBlend mode="normal" in2="BackgroundImageFix" result="effect1_dropShadow_4_15" />
      <feBlend mode="normal" in="SourceGraphic" in2="effect1_dropShadow_4_15" result="shape" />
    </filter>
  </defs>
</svg>